<svg width="368" height="160" viewBox="0 0 368 160" fill="none" xmlns="http://www.w3.org/2000/svg">
<rect width="368" height="160" rx="15" fill="#231816"></rect>
<path d="M43.312 123.288C35.632 123.288 31.6 120.312 31.472 115.864H35.248C35.472 118.552 38.32 119.928 43.344 119.928C48.272 119.928 51.088 118.744 51.088 116.664C51.088 114.968 49.488 114.04 45.776 113.528L40.496 112.792C35.76 112.12 32.624 110.488 32.624 106.68C32.624 102.968 36.208 100.312 43.344 100.312C50.256 100.312 54.384 103.192 54.416 107.32H50.608C50.416 105.208 48.4 103.704 43.408 103.704C38.8 103.704 36.464 104.824 36.464 106.616C36.464 108.152 38.096 108.888 41.168 109.304L46.32 110.04C52.048 110.84 54.96 112.792 54.96 116.472C54.96 120.6 50.544 123.288 43.312 123.288ZM68.1138 123.288C61.2977 123.288 57.7458 119.864 57.7458 114.744C57.7458 109.656 61.2977 106.2 68.0498 106.2C74.1938 106.2 77.1058 108.984 77.4258 112.536H73.7778C73.5538 110.648 71.4098 109.432 68.0498 109.432C63.4418 109.432 61.4258 111.544 61.4258 114.744C61.4258 118.008 63.4418 120.088 68.0498 120.088C71.5058 120.088 73.5538 118.904 73.8738 117.016H77.4898C77.0418 120.632 74.0338 123.288 68.1138 123.288ZM81.5035 123V99.32H85.1515V108.632C86.2395 107.352 88.3195 106.2 92.0315 106.2C97.3115 106.2 100.352 108.632 100.352 112.344V123H96.7035V113.24C96.7035 110.936 94.9755 109.496 91.1355 109.496C87.4235 109.496 85.1515 111 85.1515 113.88V123H81.5035ZM113.628 123.288C108.316 123.288 105.34 120.856 105.34 117.144V106.488H108.988V116.248C108.988 118.52 110.652 119.992 114.524 119.992C118.204 119.992 120.444 118.488 120.444 115.608V106.488H124.092V123H120.444V120.856C119.356 122.136 117.34 123.288 113.628 123.288ZM129.634 123V106.488H133.282V123H129.634ZM129.41 103.704V99.768H133.506V103.704H129.41ZM140.896 123V109.56H136.832V106.488H140.928V104.472C140.928 101.112 143.264 99 147.328 99H150.336V102.136H147.648C145.664 102.136 144.544 102.872 144.544 104.472V106.488H150.112V109.56H144.544V123H140.896ZM171.466 123.288C166.186 123.288 163.402 120.952 163.402 117.848C163.402 115 165.546 112.824 170.25 112.824H178.474V112.44C178.474 110.904 177.482 109.592 173.77 109.592H165.546V106.488H173.93C179.658 106.488 182.09 109.048 182.09 112.312V123H178.506V121.176C177.29 122.392 174.89 123.288 171.466 123.288ZM172.01 120.248C176.522 120.248 178.474 118.584 178.474 116.568V115.704H170.41C168.33 115.704 167.082 116.408 167.082 117.816C167.082 119.32 168.458 120.248 172.01 120.248ZM193.81 123.288C188.53 123.288 185.746 120.952 185.746 117.848C185.746 115 187.89 112.824 192.594 112.824H200.818V112.44C200.818 110.904 199.826 109.592 196.114 109.592H187.89V106.488H196.274C202.002 106.488 204.434 109.048 204.434 112.312V123H200.85V121.176C199.634 122.392 197.234 123.288 193.81 123.288ZM194.354 120.248C198.866 120.248 200.818 118.584 200.818 116.568V115.704H192.754C190.674 115.704 189.426 116.408 189.426 117.816C189.426 119.32 190.802 120.248 194.354 120.248ZM209.754 123V106.488H213.402V108.632C214.49 107.352 216.506 106.2 220.218 106.2C225.53 106.2 228.506 108.632 228.506 112.344V123H224.858V113.24C224.858 110.936 223.194 109.496 219.322 109.496C215.61 109.496 213.402 111 213.402 113.88V123H209.754Z" fill="white"></path>
<path d="M297 119.375L313.625 128.875V121.75H335V105.125L327.875 109.875V114.625H313.625V107.5L297 119.375Z" fill="white"></path>
</svg>