<svg width="643" height="101" viewBox="0 0 643 101" fill="none" xmlns="http://www.w3.org/2000/svg">
<path d="M136.147 64.4919C127.56 64.4919 121.606 58.1895 121.606 49.8267C121.606 41.5447 127.682 35.1615 136.147 35.1615C142.385 35.1615 146.84 38.5147 148.825 43.0395L145.18 44.9787C143.964 41.7063 140.603 39.1207 136.147 39.1207C130.234 39.1207 125.9 43.6051 125.9 49.8267C125.9 56.1291 130.234 60.5327 136.147 60.5327C140.481 60.5327 144.37 57.9471 145.625 53.5435L149.352 55.4019C147.569 60.6539 142.587 64.4919 136.147 64.4919Z" fill="white"></path>
<path d="M154.149 63.9667V35.6867H158.199V49.8267C158.361 46.0695 160.832 42.6759 165.044 42.6759C169.824 42.6759 172.335 46.2715 172.335 50.2307V63.9667H168.285V51.4023C168.285 48.5339 166.138 46.5139 163.424 46.5139C160.305 46.5139 158.199 48.7763 158.199 51.8467V63.9667H154.149Z" fill="white"></path>
<path d="M177.961 63.9667V43.2011H181.97V51.4427C182.051 46.1503 185.049 42.9991 189.585 42.9991V47.3219H188.208C183.996 47.3219 182.011 50.1903 182.011 53.5435V63.9667H177.961Z" fill="white"></path>
<path d="M193.581 63.9667V43.2011H197.631V63.9667H193.581ZM193.5 40.0903V35.3231H197.712V40.0903H193.5Z" fill="white"></path>
<path d="M210.643 64.4919C205.864 64.4919 202.705 61.9063 201.935 58.1895L205.621 57.2199C206.188 59.7247 208.335 60.9771 210.886 60.9771C213.965 60.9771 215.504 59.6843 215.504 58.1087C215.504 56.6947 214.572 55.8059 212.547 55.4019L208.983 54.7151C205.986 54.1495 203.231 52.6143 203.231 48.8975C203.231 45.4231 206.188 42.6759 211.13 42.6759C215.423 42.6759 218.744 44.9787 219.433 48.6551L215.828 49.6247C215.504 47.5239 213.641 46.1099 211.089 46.1099C208.456 46.1099 207.12 47.3219 207.12 48.7763C207.12 50.1499 208.132 50.9175 210.076 51.2811L213.56 52.0083C217.124 52.7355 219.473 54.6343 219.473 57.9875C219.473 61.8255 216.071 64.4919 210.643 64.4919Z" fill="white"></path>
<path d="M232.166 63.9667C228.926 63.9667 226.495 62.2699 226.495 58.3511V46.7563H222.85V43.2011H226.576V38.5147H230.546V43.2011H236.743V46.7563H230.546V58.1491C230.546 59.7651 231.396 60.3711 232.652 60.3711H236.378V63.9667H232.166Z" fill="white"></path>
<path d="M241.165 63.9667V43.2011H245.215V63.9667H241.165ZM241.084 40.0903V35.3231H245.296V40.0903H241.084Z" fill="white"></path>
<path d="M257.134 64.4919C252.962 64.4919 250.005 61.7851 250.005 57.9067C250.005 54.0283 252.881 51.7659 256.891 51.3619L263.979 50.6347C263.939 48.1703 262.157 46.2311 259.038 46.2311C256.162 46.2311 254.785 48.0491 254.42 49.7055L250.815 48.6551C251.747 45.0191 254.744 42.6759 259.038 42.6759C265.113 42.6759 267.949 46.7159 267.949 50.8771V63.9667H263.939V57.5835C263.939 61.9871 261.103 64.4919 257.134 64.4919ZM254.056 57.9067C254.056 59.8863 255.757 61.1387 257.985 61.1387C262.278 61.1387 263.979 58.0279 263.979 55.0787V53.9475L257.782 54.5939C255.311 54.8767 254.056 56.0079 254.056 57.9067Z" fill="white"></path>
<path d="M273.604 63.9667V43.2011H277.654V49.8267C277.654 46.0695 280.287 42.6759 284.499 42.6759C289.319 42.6759 291.79 46.2715 291.79 50.2307V63.9667H287.74V51.4023C287.74 48.5339 285.593 46.5139 282.879 46.5139C279.76 46.5139 277.654 48.7763 277.654 51.8467V63.9667H273.604Z" fill="white"></path>
<path d="M315.154 63.9667V39.5651H306.122V35.6867H328.44V39.5651H319.367V63.9667H315.154Z" fill="white"></path>
<path d="M337.178 64.4919C331.021 64.4919 326.688 60.0075 326.688 53.4627C326.688 46.9987 331.305 42.6759 337.219 42.6759C343.537 42.6759 347.142 47.4835 347.142 52.9779C347.142 53.7859 347.102 54.5535 347.021 55.0383H330.738C331.265 58.6743 333.776 60.9367 337.259 60.9367C339.851 60.9367 342.039 59.7651 343.213 57.8663L346.21 59.8055C344.59 62.5527 341.39 64.4919 337.178 64.4919ZM330.778 51.6447H343.213C343.173 48.6955 340.661 46.1907 337.178 46.1907C333.654 46.1907 331.386 48.4935 330.778 51.6447Z" fill="white"></path>
<path d="M360.801 64.4919C354.482 64.4919 349.946 59.8459 349.946 53.5839C349.946 47.3219 354.563 42.6759 360.801 42.6759C365.094 42.6759 368.78 44.7767 370.441 48.8571L366.957 50.6751C366.228 48.4127 363.92 46.3927 360.801 46.3927C356.912 46.3927 354.077 49.3823 354.077 53.5839C354.077 57.9471 357.034 60.7751 360.801 60.7751C363.636 60.7751 366.228 59.2803 367.281 56.2503L370.724 57.8663C369.104 62.3911 365.216 64.4919 360.801 64.4919Z" fill="white"></path>
<path d="M375.101 63.9667V35.6867H379.151V49.8267C379.313 46.0695 381.784 42.6759 385.996 42.6759C390.776 42.6759 393.287 46.2715 393.287 50.2307V63.9667H389.237V51.4023C389.237 48.5339 387.09 46.5139 384.376 46.5139C381.257 46.5139 379.151 48.7763 379.151 51.8467V63.9667H375.101Z" fill="white"></path>
<path d="M409.725 63.9667V35.6867H426.778V39.5247H413.897V48.2107H425.4V51.9679H413.897V63.9667H409.725Z" fill="white"></path>
<path d="M440.823 64.4919C434.464 64.4919 429.846 59.9671 429.846 53.5839C429.846 47.2411 434.464 42.6759 440.823 42.6759C447.06 42.6759 451.799 47.2411 451.799 53.5839C451.799 59.9671 447.06 64.4919 440.823 64.4919ZM433.977 53.5839C433.977 57.9067 436.894 60.8155 440.823 60.8155C444.751 60.8155 447.668 57.9067 447.668 53.5839C447.668 49.4227 444.751 46.3523 440.823 46.3523C436.894 46.3523 433.977 49.4227 433.977 53.5839Z" fill="white"></path>
<path d="M473.969 43.2011V63.9667H469.919V57.3815C469.676 61.0983 467.164 64.4919 462.871 64.4919C458.051 64.4919 455.783 60.9367 455.783 56.9371V43.2011H459.833V55.7655C459.833 58.9975 461.899 60.6539 464.613 60.6539C467.731 60.6539 469.919 58.3915 469.919 55.3615V43.2011H473.969Z" fill="white"></path>
<path d="M479.565 63.9667V43.2011H483.615V49.8267C483.615 46.0695 486.248 42.6759 490.46 42.6759C495.28 42.6759 497.751 46.2715 497.751 50.2307V63.9667H493.701V51.4023C493.701 48.5339 491.554 46.5139 488.84 46.5139C485.721 46.5139 483.615 48.7763 483.615 51.8467V63.9667H479.565Z" fill="white"></path>
<path d="M511.113 64.4919C505.888 64.4919 501.756 59.8459 501.756 53.6243C501.756 47.2411 505.807 42.6759 511.113 42.6759C515.406 42.6759 518.403 45.5847 518.93 50.3519V35.6867H522.98V63.9667H518.93V56.4927C518.403 61.0983 516.014 64.4919 511.113 64.4919ZM505.888 53.6243C505.888 58.0279 508.764 60.8155 512.53 60.8155C516.459 60.8155 519.092 57.6643 519.092 53.6243C519.092 49.0187 516.095 46.3523 512.49 46.3523C508.764 46.3523 505.888 49.3015 505.888 53.6243Z" fill="white"></path>
<path d="M537.522 64.4919C531.366 64.4919 527.032 60.0075 527.032 53.4627C527.032 46.9987 531.649 42.6759 537.563 42.6759C543.881 42.6759 547.486 47.4835 547.486 52.9779C547.486 53.7859 547.446 54.5535 547.365 55.0383H531.082C531.609 58.6743 534.12 60.9367 537.603 60.9367C540.195 60.9367 542.383 59.7651 543.557 57.8663L546.555 59.8055C544.935 62.5527 541.735 64.4919 537.522 64.4919ZM531.123 51.6447H543.557C543.517 48.6955 541.006 46.1907 537.522 46.1907C533.998 46.1907 531.73 48.4935 531.123 51.6447Z" fill="white"></path>
<path d="M551.91 63.9667V43.2011H555.92V51.4427C556.001 46.1503 558.998 42.9991 563.535 42.9991V47.3219H562.157C557.945 47.3219 555.96 50.1903 555.96 53.5435V63.9667H551.91Z" fill="white"></path>
<path d="M574.902 64.4919C570.123 64.4919 566.963 61.9063 566.194 58.1895L569.88 57.2199C570.447 59.7247 572.593 60.9771 575.145 60.9771C578.223 60.9771 579.763 59.6843 579.763 58.1087C579.763 56.6947 578.831 55.8059 576.806 55.4019L573.241 54.7151C570.244 54.1495 567.49 52.6143 567.49 48.8975C567.49 45.4231 570.447 42.6759 575.388 42.6759C579.681 42.6759 583.003 44.9787 583.691 48.6551L580.086 49.6247C579.762 47.5239 577.899 46.1099 575.348 46.1099C572.715 46.1099 571.378 47.3219 571.378 48.7763C571.378 50.1499 572.391 50.9175 574.335 51.2811L577.818 52.0083C581.383 52.7355 583.732 54.6343 583.732 57.9875C583.732 61.8255 580.33 64.4919 574.902 64.4919Z" fill="white"></path>
<path fill-rule="evenodd" clip-rule="evenodd" d="M52.7735 30.5699C52.0459 30.8994 51.3917 31.5182 51.0115 32.2366L50.6794 32.8641L50.6467 49.3837C50.6099 68.0094 50.5437 66.6778 51.5609 67.8057C52.4938 68.8401 52.9638 68.9679 55.873 68.9772L58.3461 68.9852L58.9378 67.8757C59.2633 67.2655 59.9635 65.9341 60.4937 64.917C61.0241 63.8999 63.6064 58.9626 66.2323 53.945C68.8582 48.9275 71.0437 44.7253 71.089 44.6066C71.1666 44.4029 70.8323 44.3908 65.1277 44.3908C59.4833 44.3908 59.0558 44.3758 58.6533 44.1625C57.4249 43.5118 57.3361 41.8534 58.4892 41.0997C58.8045 40.8937 59.3578 40.8728 65.9836 40.8157L73.1376 40.7541L74.5597 38.0419C75.3418 36.5502 76.5668 34.2064 77.2817 32.8333L78.5816 30.3369L65.929 30.3396C53.894 30.3422 53.2516 30.3534 52.7735 30.5699ZM82.3976 30.5378C82.3976 30.6483 81.229 32.9711 79.8008 35.6996C78.3725 38.428 77.204 40.6954 77.204 40.738C77.204 40.7808 79.9585 40.8157 83.325 40.8157H89.4461V37.0781C89.4461 32.2349 89.2015 31.46 87.4105 30.6286C86.5912 30.2481 82.3976 30.1723 82.3976 30.5378ZM69.5947 55.2087C66.4837 61.1585 63.6121 66.643 63.2134 67.3965C62.8149 68.1501 62.4887 68.8276 62.4887 68.902C62.4887 68.9998 65.8595 69.0302 74.5762 69.0114L86.6638 68.9852L87.3166 68.6911C89.4957 67.7094 89.4461 68.0244 89.4461 55.1554V44.3908H75.251L69.5947 55.2087Z" fill="white"></path>
</svg>