<svg width="69" height="23" viewBox="0 0 69 23" fill="none" xmlns="http://www.w3.org/2000/svg">
<path fill-rule="evenodd" clip-rule="evenodd" d="M1.27015 0.160329C0.839016 0.356088 0.451409 0.723659 0.226099 1.15048L0.0292914 1.52325L0.00994773 11.3368C-0.0118872 22.4016 -0.0510877 21.6106 0.551645 22.2806C1.10441 22.8951 1.38291 22.971 3.1067 22.9766L4.57213 22.9813L4.92274 22.3222C5.11559 21.9597 5.53045 21.1687 5.84464 20.5646C6.1589 19.9604 7.68903 17.0273 9.24496 14.0466C10.8009 11.0659 12.0959 8.56948 12.1227 8.49895C12.1687 8.37797 11.9706 8.37079 8.59042 8.37079C5.24594 8.37079 4.99264 8.36186 4.75414 8.23516C4.02626 7.84862 3.97365 6.86338 4.65691 6.41569C4.84375 6.29331 5.17157 6.28086 9.09761 6.24695L13.3366 6.21034L14.1792 4.59915C14.6427 3.713 15.3685 2.32064 15.7921 1.50494L16.5624 0.0219133L9.06522 0.0235247C1.93406 0.0250627 1.55341 0.0317269 1.27015 0.160329ZM18.8235 0.141287C18.8235 0.206907 18.131 1.58682 17.2848 3.20767C16.4385 4.82852 15.7461 6.17548 15.7461 6.20082C15.7461 6.22623 17.3782 6.24695 19.373 6.24695H22.9999V4.02659C22.9999 1.14945 22.855 0.689091 21.7937 0.195189C21.3083 -0.0308166 18.8235 -0.0758566 18.8235 0.141287ZM11.2373 14.7972C9.39392 18.3318 7.6924 21.5899 7.45618 22.0375C7.22002 22.4852 7.02673 22.8877 7.02673 22.9319C7.02673 22.99 9.02404 23.0081 14.189 22.9969L21.3513 22.9813L21.7381 22.8066C23.0293 22.2234 22.9999 22.4105 22.9999 14.7656V8.37079H18.7944H14.5889L11.2373 14.7972Z" fill="#211C1C"></path>
<path d="M38.06 18.26C33.82 18.26 30.88 15.14 30.88 11C30.88 6.9 33.88 3.74 38.06 3.74C41.14 3.74 43.34 5.4 44.32 7.64L42.52 8.6C41.92 6.98 40.26 5.7 38.06 5.7C35.14 5.7 33 7.92 33 11C33 14.12 35.14 16.3 38.06 16.3C40.2 16.3 42.12 15.02 42.74 12.84L44.58 13.76C43.7 16.36 41.24 18.26 38.06 18.26ZM50.1414 18V5.92H45.6814V4H56.7014V5.92H52.2214V18H50.1414ZM59.2214 18V4H67.6414V5.9H61.2814V10.2H66.9614V12.06H61.2814V18H59.2214Z" fill="black"></path>
</svg>