<svg width="318" height="48" viewBox="0 0 318 48" fill="none" xmlns="http://www.w3.org/2000/svg">
<path d="M50.672 32.312C45.584 32.312 42.056 28.568 42.056 23.6C42.056 18.68 45.656 14.888 50.672 14.888C54.368 14.888 57.008 16.88 58.184 19.568L56.024 20.72C55.304 18.776 53.312 17.24 50.672 17.24C47.168 17.24 44.6 19.904 44.6 23.6C44.6 27.344 47.168 29.96 50.672 29.96C53.24 29.96 55.544 28.424 56.288 25.808L58.496 26.912C57.44 30.032 54.488 32.312 50.672 32.312ZM61.3385 32V15.2H63.7385V23.6C63.8345 21.368 65.2985 19.352 67.7945 19.352C70.6265 19.352 72.1145 21.488 72.1145 23.84V32H69.7145V24.536C69.7145 22.832 68.4425 21.632 66.8345 21.632C64.9865 21.632 63.7385 22.976 63.7385 24.8V32H61.3385ZM75.4479 32V19.664H77.8239V24.56C77.8719 21.416 79.6479 19.544 82.3359 19.544V22.112H81.5199C79.0239 22.112 77.8479 23.816 77.8479 25.808V32H75.4479ZM84.7034 32V19.664H87.1034V32H84.7034ZM84.6554 17.816V14.984H87.1514V17.816H84.6554ZM94.8136 32.312C91.9816 32.312 90.1096 30.776 89.6536 28.568L91.8376 27.992C92.1736 29.48 93.4456 30.224 94.9576 30.224C96.7816 30.224 97.6936 29.456 97.6936 28.52C97.6936 27.68 97.1416 27.152 95.9416 26.912L93.8296 26.504C92.0536 26.168 90.4216 25.256 90.4216 23.048C90.4216 20.984 92.1736 19.352 95.1016 19.352C97.6456 19.352 99.6136 20.72 100.022 22.904L97.8856 23.48C97.6936 22.232 96.5896 21.392 95.0776 21.392C93.5176 21.392 92.7256 22.112 92.7256 22.976C92.7256 23.792 93.3256 24.248 94.4776 24.464L96.5416 24.896C98.6536 25.328 100.046 26.456 100.046 28.448C100.046 30.728 98.0296 32.312 94.8136 32.312ZM107.566 32C105.646 32 104.206 30.992 104.206 28.664V21.776H102.046V19.664H104.254V16.88H106.606V19.664H110.278V21.776H106.606V28.544C106.606 29.504 107.11 29.864 107.854 29.864H110.062V32H107.566ZM112.899 32V19.664H115.299V32H112.899ZM112.851 17.816V14.984H115.347V17.816H112.851ZM122.361 32.312C119.889 32.312 118.137 30.704 118.137 28.4C118.137 26.096 119.841 24.752 122.217 24.512L126.417 24.08C126.393 22.616 125.337 21.464 123.489 21.464C121.785 21.464 120.969 22.544 120.753 23.528L118.617 22.904C119.169 20.744 120.945 19.352 123.489 19.352C127.089 19.352 128.769 21.752 128.769 24.224V32H126.393V28.208C126.393 30.824 124.713 32.312 122.361 32.312ZM120.537 28.4C120.537 29.576 121.545 30.32 122.865 30.32C125.409 30.32 126.417 28.472 126.417 26.72V26.048L122.745 26.432C121.281 26.6 120.537 27.272 120.537 28.4ZM132.12 32V19.664H134.52V23.6C134.52 21.368 136.08 19.352 138.576 19.352C141.432 19.352 142.896 21.488 142.896 23.84V32H140.496V24.536C140.496 22.832 139.224 21.632 137.616 21.632C135.768 21.632 134.52 22.976 134.52 24.8V32H132.12ZM156.74 32V17.504H151.388V15.2H164.612V17.504H159.236V32H156.74ZM169.79 32.312C166.142 32.312 163.574 29.648 163.574 25.76C163.574 21.92 166.31 19.352 169.814 19.352C173.558 19.352 175.694 22.208 175.694 25.472C175.694 25.952 175.67 26.408 175.622 26.696H165.974C166.286 28.856 167.774 30.2 169.838 30.2C171.374 30.2 172.67 29.504 173.366 28.376L175.142 29.528C174.182 31.16 172.286 32.312 169.79 32.312ZM165.998 24.68H173.366C173.342 22.928 171.854 21.44 169.79 21.44C167.702 21.44 166.358 22.808 165.998 24.68ZM183.787 32.312C180.043 32.312 177.355 29.552 177.355 25.832C177.355 22.112 180.091 19.352 183.787 19.352C186.331 19.352 188.515 20.6 189.499 23.024L187.435 24.104C187.003 22.76 185.635 21.56 183.787 21.56C181.483 21.56 179.803 23.336 179.803 25.832C179.803 28.424 181.555 30.104 183.787 30.104C185.467 30.104 187.003 29.216 187.627 27.416L189.667 28.376C188.707 31.064 186.403 32.312 183.787 32.312ZM192.26 32V15.2H194.66V23.6C194.756 21.368 196.22 19.352 198.716 19.352C201.548 19.352 203.036 21.488 203.036 23.84V32H200.636V24.536C200.636 22.832 199.364 21.632 197.756 21.632C195.908 21.632 194.66 22.976 194.66 24.8V32H192.26ZM212.777 32V15.2H222.881V17.48H215.249V22.64H222.065V24.872H215.249V32H212.777ZM231.203 32.312C227.435 32.312 224.699 29.624 224.699 25.832C224.699 22.064 227.435 19.352 231.203 19.352C234.899 19.352 237.707 22.064 237.707 25.832C237.707 29.624 234.899 32.312 231.203 32.312ZM227.147 25.832C227.147 28.4 228.875 30.128 231.203 30.128C233.531 30.128 235.259 28.4 235.259 25.832C235.259 23.36 233.531 21.536 231.203 21.536C228.875 21.536 227.147 23.36 227.147 25.832ZM250.843 19.664V32H248.443V28.088C248.299 30.296 246.811 32.312 244.267 32.312C241.411 32.312 240.067 30.2 240.067 27.824V19.664H242.467V27.128C242.467 29.048 243.691 30.032 245.299 30.032C247.147 30.032 248.443 28.688 248.443 26.888V19.664H250.843ZM254.159 32V19.664H256.559V23.6C256.559 21.368 258.119 19.352 260.615 19.352C263.471 19.352 264.935 21.488 264.935 23.84V32H262.535V24.536C262.535 22.832 261.263 21.632 259.655 21.632C257.807 21.632 256.559 22.976 256.559 24.8V32H254.159ZM272.852 32.312C269.756 32.312 267.308 29.552 267.308 25.856C267.308 22.064 269.708 19.352 272.852 19.352C275.396 19.352 277.172 21.08 277.484 23.912V15.2H279.884V32H277.484V27.56C277.172 30.296 275.756 32.312 272.852 32.312ZM269.756 25.856C269.756 28.472 271.46 30.128 273.692 30.128C276.02 30.128 277.58 28.256 277.58 25.856C277.58 23.12 275.804 21.536 273.668 21.536C271.46 21.536 269.756 23.288 269.756 25.856ZM288.501 32.312C284.853 32.312 282.285 29.648 282.285 25.76C282.285 21.92 285.021 19.352 288.525 19.352C292.269 19.352 294.405 22.208 294.405 25.472C294.405 25.952 294.381 26.408 294.333 26.696H284.685C284.997 28.856 286.485 30.2 288.549 30.2C290.085 30.2 291.381 29.504 292.077 28.376L293.853 29.528C292.893 31.16 290.997 32.312 288.501 32.312ZM284.709 24.68H292.077C292.053 22.928 290.565 21.44 288.501 21.44C286.413 21.44 285.069 22.808 284.709 24.68ZM297.026 32V19.664H299.402V24.56C299.45 21.416 301.226 19.544 303.914 19.544V22.112H303.098C300.602 22.112 299.426 23.816 299.426 25.808V32H297.026ZM310.65 32.312C307.818 32.312 305.946 30.776 305.49 28.568L307.674 27.992C308.01 29.48 309.282 30.224 310.794 30.224C312.618 30.224 313.53 29.456 313.53 28.52C313.53 27.68 312.978 27.152 311.778 26.912L309.666 26.504C307.89 26.168 306.258 25.256 306.258 23.048C306.258 20.984 308.01 19.352 310.938 19.352C313.482 19.352 315.45 20.72 315.858 22.904L313.722 23.48C313.53 22.232 312.426 21.392 310.914 21.392C309.354 21.392 308.562 22.112 308.562 22.976C308.562 23.792 309.162 24.248 310.314 24.464L312.378 24.896C314.49 25.328 315.882 26.456 315.882 28.448C315.882 30.728 313.866 32.312 310.65 32.312Z" fill="black"></path>
<path fill-rule="evenodd" clip-rule="evenodd" d="M1.27015 12.1603C0.839016 12.3561 0.451409 12.7237 0.226099 13.1505L0.0292914 13.5232L0.00994773 23.3368C-0.0118872 34.4016 -0.0510877 33.6106 0.551645 34.2806C1.10441 34.8951 1.38291 34.971 3.1067 34.9766L4.57213 34.9813L4.92274 34.3222C5.11559 33.9597 5.53045 33.1687 5.84464 32.5646C6.1589 31.9604 7.68903 29.0273 9.24496 26.0466C10.8009 23.0659 12.0959 20.5695 12.1227 20.499C12.1687 20.378 11.9706 20.3708 8.59042 20.3708C5.24594 20.3708 4.99264 20.3619 4.75414 20.2352C4.02626 19.8486 3.97365 18.8634 4.65691 18.4157C4.84375 18.2933 5.17157 18.2809 9.09761 18.247L13.3366 18.2103L14.1792 16.5991C14.6427 15.713 15.3685 14.3206 15.7921 13.5049L16.5624 12.0219L9.06522 12.0235C1.93406 12.0251 1.55341 12.0317 1.27015 12.1603ZM18.8235 12.1413C18.8235 12.2069 18.131 13.5868 17.2848 15.2077C16.4385 16.8285 15.7461 18.1755 15.7461 18.2008C15.7461 18.2262 17.3782 18.247 19.373 18.247H22.9999V16.0266C22.9999 13.1495 22.855 12.6891 21.7937 12.1952C21.3083 11.9692 18.8235 11.9241 18.8235 12.1413ZM11.2373 26.7972C9.39392 30.3318 7.6924 33.5899 7.45618 34.0375C7.22002 34.4852 7.02673 34.8877 7.02673 34.9319C7.02673 34.99 9.02404 35.0081 14.189 34.9969L21.3513 34.9813L21.7381 34.8066C23.0293 34.2234 22.9999 34.4105 22.9999 26.7656V20.3708H18.7944H14.5889L11.2373 26.7972Z" fill="black"></path>
</svg>